<svg width="248" height="151" viewBox="0 0 248 151" fill="none" xmlns="http://www.w3.org/2000/svg">
<path d="M58.1836 25.4922C62.3503 25.4271 65.7682 26.1758 68.4375 27.7383C71.1719 29.3008 73.3854 31.1562 75.0781 33.3047C76.7708 35.4531 78.0729 37.6341 78.9844 39.8477C79.8958 41.9961 80.612 43.6888 81.1328 44.9258C81.263 45.2513 81.5234 45.6745 81.9141 46.1953C82.2396 46.651 82.6953 47.2044 83.2812 47.8555C83.9323 48.4414 84.7461 49.125 85.7227 49.9062C83.7044 49.9714 81.9141 50.0365 80.3516 50.1016C78.7891 50.1016 77.4544 50.1341 76.3477 50.1992C75.1107 50.2643 74.0039 50.3294 73.0273 50.3945C72.0508 50.4596 70.8464 50.5573 69.4141 50.6875C68.112 50.8177 66.5169 50.9479 64.6289 51.0781C62.7409 51.2083 60.4297 51.4036 57.6953 51.6641C59.3229 49.7109 60.5924 47.9857 61.5039 46.4883C62.4805 44.9258 63.1966 43.5586 63.6523 42.3867C64.1732 41.1497 64.4661 40.0755 64.5312 39.1641C64.6615 38.2526 64.6289 37.4714 64.4336 36.8203C64.043 35.3229 63.0339 34.2487 61.4062 33.5977C56.7188 32.2956 52.6172 33.3372 49.1016 36.7227C45.651 40.043 43.1771 45.5117 41.6797 53.1289C40.9635 56.9049 40.2799 60.8438 39.6289 64.9453C39.043 68.9818 38.8151 72.6927 38.9453 76.0781C39.0755 79.3984 39.7266 82.1003 40.8984 84.1836C42.0703 86.2669 44.0885 87.2435 46.9531 87.1133C49.7526 86.9831 52.1289 86.5273 54.082 85.7461C56.0352 84.8997 57.5977 83.9232 58.7695 82.8164C59.9414 81.6445 60.7552 80.4076 61.2109 79.1055C61.7318 77.7383 61.9271 76.4688 61.7969 75.2969C61.5365 74.3854 60.8529 73.4089 59.7461 72.3672C58.7695 71.4557 57.3047 70.4466 55.3516 69.3398C53.3984 68.168 50.599 66.9635 46.9531 65.7266C50.4036 65.5312 53.2357 65.401 55.4492 65.3359C57.7279 65.2057 59.5182 65.0755 60.8203 64.9453C62.3828 64.8151 63.5872 64.7174 64.4336 64.6523C65.2148 64.5872 66.3542 64.5221 67.8516 64.457C69.1536 64.3919 70.8138 64.3594 72.832 64.3594C74.9154 64.3594 77.5195 64.3268 80.6445 64.2617C79.4727 65.4336 78.5612 66.5078 77.9102 67.4844C77.5846 68.0052 77.2917 68.4609 77.0312 68.8516C76.7708 69.5026 76.6732 70.8372 76.7383 72.8555C76.7383 74.5482 76.8685 77.0547 77.1289 80.375C77.3893 83.6302 77.8776 88.0898 78.5938 93.7539L65.6055 95.5117L66.1914 82.3281C64.694 85.9089 62.806 88.5781 60.5273 90.3359C58.3138 92.0938 56.1979 93.3307 54.1797 94.0469C51.7708 94.8932 49.2643 95.2839 46.6602 95.2188C43.2747 94.8932 39.8893 94.112 36.5039 92.875C33.1185 91.638 30.1237 89.75 27.5195 87.2109C24.9154 84.6068 22.8971 81.2539 21.4648 77.1523C20.0977 73.0508 19.6745 67.9727 20.1953 61.918C20.7812 55.8633 22.2135 50.5898 24.4922 46.0977C26.8359 41.5404 29.7331 37.7643 33.1836 34.7695C36.6341 31.7747 40.5078 29.5286 44.8047 28.0312C49.1667 26.4688 53.6263 25.6224 58.1836 25.4922Z" fill="#385b85"/>
<path d="M149.512 25.9805C151.595 26.0456 153.418 26.0781 154.98 26.0781C156.543 26.013 157.812 25.9805 158.789 25.9805H161.621C162.337 25.9154 163.216 25.8828 164.258 25.8828C165.169 25.8828 166.276 25.8828 167.578 25.8828C168.88 25.8828 170.378 25.9154 172.07 25.9805C172.591 27.8034 173.177 29.5938 173.828 31.3516C174.544 33.0443 175.163 34.5742 175.684 35.9414C176.335 37.569 176.986 39.099 177.637 40.5312C178.288 41.9635 179.069 43.6888 179.98 45.707C180.762 47.3997 181.706 49.4831 182.812 51.957C183.919 54.3659 185.221 57.1328 186.719 60.2578C187.435 58.2396 188.086 56.3841 188.672 54.6914C189.323 52.9987 189.876 51.5339 190.332 50.2969C190.853 48.8646 191.276 47.5625 191.602 46.3906C191.927 45.2188 192.285 43.7865 192.676 42.0938C193.001 40.6615 193.359 38.9362 193.75 36.918C194.206 34.8997 194.661 32.556 195.117 29.8867C197.005 29.8867 198.698 29.8867 200.195 29.8867C201.693 29.8867 202.995 29.8542 204.102 29.7891C205.339 29.7891 206.445 29.7565 207.422 29.6914C208.464 29.6914 209.863 29.6263 211.621 29.4961C213.118 29.3659 215.104 29.2682 217.578 29.2031C220.117 29.0729 223.242 28.9102 226.953 28.7148C225.586 29.6914 224.479 30.668 223.633 31.6445C222.852 32.556 222.233 33.3698 221.777 34.0859C221.257 34.9323 220.931 35.7461 220.801 36.5273C220.671 37.1784 220.54 38.6758 220.41 41.0195C220.345 43.3633 220.247 46.1628 220.117 49.418C220.052 52.6081 219.987 56.026 219.922 59.6719C219.922 63.3177 219.954 66.7682 220.02 70.0234C220.085 73.2786 220.182 76.1107 220.312 78.5195C220.508 80.8633 220.768 82.3607 221.094 83.0117C221.549 83.793 222.168 84.7044 222.949 85.7461C223.665 86.6576 224.577 87.6992 225.684 88.8711C226.855 90.043 228.385 91.3451 230.273 92.7773C227.279 92.9076 224.772 93.0052 222.754 93.0703C220.801 93.1354 219.173 93.2005 217.871 93.2656C216.374 93.3307 215.169 93.3633 214.258 93.3633C213.281 93.3633 211.947 93.3958 210.254 93.4609C208.757 93.526 206.771 93.6237 204.297 93.7539C201.823 93.819 198.633 93.9492 194.727 94.1445C195.638 93.1029 196.484 92.0612 197.266 91.0195C198.047 89.9779 198.698 89.0339 199.219 88.1875C199.87 87.2109 200.423 86.2669 200.879 85.3555C201.335 84.1185 201.693 81.8724 201.953 78.6172C202.214 75.8177 202.409 71.8138 202.539 66.6055C202.669 61.332 202.669 54.2682 202.539 45.4141C201.302 47.4323 200.195 49.4505 199.219 51.4688C198.307 53.4219 197.493 55.2122 196.777 56.8398C195.996 58.7279 195.28 60.5508 194.629 62.3086C193.978 64.1315 193.294 66.1497 192.578 68.3633C191.927 70.2513 191.146 72.4974 190.234 75.1016C189.388 77.7057 188.411 80.5703 187.305 83.6953L183.594 83.8906C183.073 81.2865 182.552 78.9427 182.031 76.8594C181.51 74.7109 180.99 72.888 180.469 71.3906C179.883 69.6328 179.297 68.0703 178.711 66.7031C178.06 65.3359 177.344 63.806 176.562 62.1133C175.846 60.681 174.967 58.9883 173.926 57.0352C172.949 55.082 171.81 52.901 170.508 50.4922C169.857 57.1328 169.466 62.5365 169.336 66.7031C169.206 70.8047 169.206 73.9948 169.336 76.2734C169.466 79.0078 169.661 80.9935 169.922 82.2305C170.312 83.3372 170.931 84.5742 171.777 85.9414C172.493 87.1133 173.47 88.513 174.707 90.1406C176.009 91.7031 177.669 93.4609 179.688 95.4141C178.255 95.4141 176.758 95.4141 175.195 95.4141C173.633 95.4141 172.201 95.4466 170.898 95.5117C169.336 95.5768 167.806 95.6094 166.309 95.6094C164.746 95.6745 162.923 95.7721 160.84 95.9023C159.017 96.0326 156.836 96.1628 154.297 96.293C151.758 96.4232 148.828 96.651 145.508 96.9766C146.94 96.0651 148.112 95.1862 149.023 94.3398C149.935 93.4284 150.651 92.6146 151.172 91.8984C151.823 91.0521 152.311 90.2057 152.637 89.3594C152.832 88.8385 152.995 87.6992 153.125 85.9414C153.32 84.1836 153.483 82.0352 153.613 79.4961C153.809 76.957 153.939 74.125 154.004 71C154.134 67.875 154.232 64.7174 154.297 61.5273C154.427 58.2721 154.525 55.1146 154.59 52.0547C154.655 48.9297 154.688 46.1302 154.688 43.6562C154.753 41.1172 154.785 39.0013 154.785 37.3086C154.785 35.6159 154.785 34.5417 154.785 34.0859C154.59 33.1094 154.297 32.1328 153.906 31.1562C153.581 30.3099 153.06 29.431 152.344 28.5195C151.628 27.6081 150.684 26.7617 149.512 25.9805Z" fill="#385b85"/>
<path d="M107.929 105.558L118.633 105.545M138.14 26.6138L138.14 33.5846L97.0919 33.5846L97.0864 26.6138L138.14 26.6138ZM138.14 78.0171L138.14 84.988L97.074 84.9879L97.0739 78.0171L138.14 78.0171ZM120.253 52.312L120.253 59.2828L97.0864 59.2828L97.0864 52.312L120.253 52.312ZM120.256 65.1473L120.255 72.1195H97.0892V65.1486L120.256 65.1473ZM120.253 39.4851L120.255 46.4573H97.0836L97.085 39.4851H120.253ZM130.223 90.8524L113.274 112.898L97.0726 90.8524L130.223 90.8524Z" stroke="#385b85" stroke-linecap="round" stroke-linejoin="round"/>
<path d="M113.109 112.544C111.234 116.763 109.328 121.182 106.337 124.759C104.286 127.212 101.076 130.083 98.0826 131.32C90.1863 134.584 81.0427 133.062 73.1842 130.746C63.2506 127.817 56.3462 124.461 47.4241 118.939C34.0676 110.673 21.3859 100.226 11.2784 88.1446C8.21479 84.4827 3.25896 77.4046 2.23818 72.1806C0.874997 65.2043 5.57038 59.1927 11.0365 55.6875C25.0394 46.7081 42.2972 51.2746 56.8121 56.262C87.7541 66.8938 115.739 84.1304 144.191 99.906C152.15 104.319 161.807 109.63 170.495 112.695C181.994 116.752 194.235 118.37 206.369 117.246C211.5 116.77 217 115.5 223 110C229 104.5 234 97 234 97" stroke="#385b85" stroke-width="3" stroke-linecap="round"/>
<path d="M113.118 112.606C113.133 112.379 113.323 112.217 113.387 112.004C113.424 111.884 113.424 111.786 113.514 111.695" stroke="#385b85" stroke-width="3" stroke-linecap="round"/>
<path d="M245.5 79.5625C245.5 82.4875 244.094 85.0875 241.919 86.7174L242.894 88.0174C244.208 87.0345 245.275 85.7584 246.01 84.2906C246.744 82.8228 247.126 81.2038 247.125 79.5625H245.5ZM236.563 70.625C238.933 70.625 241.206 71.5666 242.882 73.2427C244.558 74.9188 245.5 77.1921 245.5 79.5625H247.125C247.125 76.7612 246.012 74.0745 244.031 72.0937C242.05 70.1128 239.364 69 236.563 69V70.625ZM227.625 79.5625C227.625 77.1921 228.567 74.9188 230.243 73.2427C231.919 71.5666 234.192 70.625 236.563 70.625V69C233.761 69 231.075 70.1128 229.094 72.0937C227.113 74.0745 226 76.7612 226 79.5625H227.625ZM231.207 86.7174C230.094 85.8859 229.19 84.8061 228.569 83.564C227.947 82.3218 227.624 80.9516 227.625 79.5625H226C225.999 81.2038 226.381 82.8228 227.115 84.2906C227.85 85.7584 228.917 87.0345 230.232 88.0174L231.207 86.7174ZM234.12 95.4111C234.071 93.0349 233.58 90.6886 232.672 88.4919L231.171 89.111C232 91.1163 232.451 93.2661 232.497 95.4453L234.12 95.4111ZM239.106 95.2568C238.316 95.6515 237.445 95.857 236.563 95.857C235.68 95.857 234.809 95.6515 234.019 95.2568L233.293 96.7111C234.308 97.2186 235.428 97.4828 236.563 97.4828C237.697 97.4828 238.817 97.2186 239.832 96.7111L239.106 95.2568ZM240.454 88.4919C239.546 90.689 239.055 93.0359 239.005 95.4127L240.63 95.4453C240.674 93.2661 241.126 91.1179 241.954 89.1126L240.454 88.4919ZM239.832 96.7111C240.067 96.5927 240.266 96.4122 240.406 96.1891C240.547 95.966 240.623 95.7088 240.628 95.4453L239.003 95.4127C239.004 95.3798 239.014 95.3479 239.032 95.3203C239.051 95.2928 239.076 95.2708 239.106 95.2568L239.832 96.7111ZM232.497 95.4453C232.502 95.7088 232.578 95.966 232.719 96.1891C232.859 96.4122 233.058 96.5927 233.293 96.7111L234.019 95.2568C234.049 95.2709 234.073 95.2928 234.091 95.3199C234.109 95.3471 234.119 95.3787 234.12 95.4111L232.497 95.4453ZM230.232 88.019C230.748 88.4058 230.865 88.5016 230.914 88.565L232.198 87.5689C231.978 87.2861 231.624 87.0326 231.207 86.7174L230.232 88.019ZM232.672 88.4919C232.531 88.1506 232.412 87.8468 232.198 87.5689L230.914 88.565C230.966 88.6332 231.002 88.7031 231.171 89.111L232.672 88.4919ZM241.919 86.719C241.501 87.031 241.147 87.2878 240.927 87.5689L242.211 88.565C242.26 88.5016 242.375 88.4058 242.894 88.0174L241.919 86.719ZM241.954 89.1126C242.123 88.7047 242.159 88.6332 242.213 88.565L240.929 87.5689C240.713 87.8468 240.594 88.1506 240.453 88.4919L241.954 89.1126Z" fill="#385b85"/>
<path d="M240.625 90.125C238.017 91.1681 235.108 91.1681 232.5 90.125" stroke="#385b85"/>
<path d="M234.938 86.0625V79.1562C234.938 78.035 234.027 77.125 232.906 77.125C231.785 77.125 230.875 78.035 230.875 79.1562C230.875 80.2775 231.785 81.1875 232.906 81.1875H240.219C241.34 81.1875 242.25 80.2775 242.25 79.1562C242.25 78.035 241.34 77.125 240.219 77.125C239.098 77.125 238.188 78.035 238.188 79.1562V86.0625" stroke="#385b85" stroke-linecap="round"/>
</svg>
